<svg clip-rule="evenodd" fill-rule="evenodd" stroke-linejoin="round" stroke-miterlimit="2" viewBox="0 0 3334 592" xmlns="http://www.w3.org/2000/svg" xmlns:xlink="http://www.w3.org/1999/xlink"><clipPath id="a"><path clip-rule="evenodd" d="m0 0h3333.33v591.667h-3333.33z"/></clipPath><path d="m0 0h3333.33v591.667h-3333.33z" fill="none"/><g clip-path="url(#a)" fill-rule="nonzero"><path d="m83.131 453.758c0 16.644 7.648 27.891 19.793 27.891 1.8 0 4.949-.45 7.198-1.35-8.097-1.35-7.647-8.097-7.647-16.644 0-18.444 31.039-70.176 73.324-129.105 122.807-22.942 375.169-121.907 375.169-240.216 0-73.774-107.963-92.667-156.546-92.667-232.568 0-394.511 133.603-394.511 194.781 0 33.739 24.741 42.735 56.68 42.735 7.197 0 7.197-.449 7.197-.449-11.696-.9-33.288-12.146-33.288-30.59 0-58.479 201.979-193.432 360.773-193.432 79.623 0 137.652 23.842 137.652 66.577 0 71.975-187.134 171.39-324.336 214.125 76.923-102.564 173.639-211.426 200.18-211.426 4.048 0 8.997 1.349 12.595 6.298-2.699-18.444-20.692-34.188-36.887-34.188-34.188 0-153.846 136.302-230.319 253.711-18.893 4.048-35.088 5.848-48.583 5.848-8.547 0-11.246-2.699-11.246-4.949 0-19.793 47.233-49.032 61.178-57.13-.449-.449-.899-.449-1.349-.449-11.246 0-76.473 35.987-76.473 60.278 0 16.645 22.492 26.091 57.58 26.091-28.79 47.684-48.134 89.969-48.134 114.26z"/><path d="m468.646 260.326c-17.993 25.641-38.236 56.68-49.482 82.321-5.398 10.347-7.648 18.894-6.748 22.942 3.149 12.596 13.945 26.541 26.991 23.392-9.897-4.498 17.094-44.085 40.036-68.826 30.589-33.738 51.731-51.732 93.117-76.023-11.696 13.495-26.091 39.586-26.091 52.181 0 5.399 13.495 21.143 21.593 21.143 31.039 0 85.02-50.382 93.117-61.179-.45-.899-3.149-.449-3.599 0-27.89 24.742-58.929 44.985-80.522 46.784 14.845-35.088 52.182-67.926 62.079-78.272 3.149-3.599-15.295-22.942-20.243-22.493-9.447.9-22.942 8.547-40.486 21.143-38.687 27.89-83.671 65.677-107.512 96.716 9.446-16.644 25.191-37.787 37.337-53.981 13.495-17.994 29.239-35.538 35.987-35.088 3.599.45 4.948 2.699 4.948.9 0-11.246-17.094-28.79-27.89-28.79-1.799 0-3.599.45-6.298 2.249-11.246 8.997-30.589 31.939-46.334 54.881z"/><path d="m619.344 383.133c27.89-2.249 99.415-75.573 138.551-117.859 1.35-1.349-.9-4.948-4.049-2.699-27.44 26.541-93.117 89.069-120.557 96.267 5.398-18.444 67.026-121.008 85.47-119.209 3.598.45 5.848 2.699 5.848.9 0-11.246-17.994-29.24-28.34-29.24-1.8 0-4.499.45-6.748 2.699-28.79 22.942-94.017 121.008-94.017 147.099 0 8.097 11.246 19.343 18.443 21.592 2.25.45 3.599.45 5.399.45zm118.758-240.666c-11.696 3.599-28.79 32.839-28.34 45.884.45 8.097 9.896 17.544 16.194 9.447 5.398-7.647 26.091-26.091 33.738-29.24 4.949-2.249 8.547-.45 9.447-.45 1.799 0-.9-6.747-4.948-11.246-5.848-6.747-15.745-15.744-26.091-14.395z"/><path d="m931.084 233.785c5.848-4.948-8.547-29.239-19.343-29.239-15.294 0-94.467 60.728-144.849 110.211-9.447 8.997-17.994 17.994-22.942 25.191 6.748-12.595 30.139-45.884 51.282-73.774 13.495-17.544 30.139-36.437 35.987-35.987 3.599.449 5.398 2.699 5.398.899 0-11.246-17.094-28.79-28.34-28.79-1.349 0-4.048.45-5.848 2.25-11.695 8.996-31.489 32.838-47.683 55.78-14.845 20.693-31.939 47.234-42.735 68.376-11.246 20.693-13.495 32.839-12.595 35.987 3.598 13.046 14.394 27.441 27.89 24.292-6.748-3.149-3.599-15.295 8.547-29.69 4.948-6.297 10.346-13.045 16.194-18.893 33.288-35.987 99.415-90.418 136.302-107.062-23.391 21.142-75.573 96.266-75.573 121.907 0 4.948 3.149 11.696 8.097 17.544 4.498 5.398 9.447 9.446 13.945 9.446 26.991 0 100.315-74.224 139.451-116.959 1.35-1.349-.899-4.948-3.598-2.699-28.79 26.991-93.118 88.619-121.458 96.267.9-21.143 70.625-116.06 81.871-125.057z"/><path d="m950.428 356.142c0-31.488 88.169-133.153 136.302-134.053 3.599 3.149-14.845 38.687-22.042 45.884-.9 1.35 1.349 2.25 2.249 1.35 14.845-11.246 36.887-27.89 36.887-44.984 0-6.748-15.295-22.043-25.641-22.043-31.939 0-77.373 23.392-114.26 59.829-30.14 29.24-46.334 60.729-49.933 79.623-1.349 5.398-1.349 9.896-.899 13.495 2.249 14.395 18.443 27.89 32.838 27.89 55.781 0 142.6-81.421 181.287-117.859 1.349-1.349-1.8-3.149-3.149-2.249-43.635 35.538-119.208 96.266-160.594 100.765-4.049.45-13.045-.45-13.045-7.648z"/><path d="m1086.73 383.133c27.89-2.249 99.415-75.573 138.551-117.859 1.35-1.349-.899-4.948-4.048-2.699-27.441 26.541-93.118 89.069-120.558 96.267 5.398-18.444 67.026-121.008 85.47-119.209 3.599.45 5.848 2.699 5.848.9 0-11.246-17.994-29.24-28.34-29.24-1.799 0-4.499.45-6.748 2.699-28.79 22.942-94.017 121.008-94.017 147.099 0 8.097 11.246 19.343 18.444 21.592 2.249.45 3.598.45 5.398.45zm118.758-240.666c-11.696 3.599-28.79 32.839-28.34 45.884.45 8.097 9.897 17.544 16.195 9.447 5.398-7.647 26.09-26.091 33.738-29.24 4.948-2.249 8.547-.45 9.446-.45 1.8 0-.899-6.747-4.948-11.246-5.848-6.747-15.744-15.744-26.091-14.395z"/><path d="m1233.38 247.73c-68.376 87.72-158.344 228.52-167.791 304.094-3.598 27.44 16.644 44.084 37.337 35.987-10.346-1.349-10.346-10.346-8.097-21.592 11.246-66.577 74.674-162.393 118.309-224.921 78.272-82.321 150.697-118.309 157.444-118.309-5.398 25.191-86.369 141.7-131.803 141.7-9.447 0-17.094-8.547-17.094-13.045 0-1.349-2.25-.45-2.25 1.799 0 14.845 20.693 26.091 38.237 26.091 61.628 0 149.797-107.962 149.797-148.448 0-6.747-15.744-23.841-21.592-26.091-22.492-7.647-106.613 53.532-145.749 96.267 0 0 19.343-27.891 25.191-35.088 14.395-18.444 30.14-36.887 36.887-35.987 3.149.449 4.499 2.249 4.499.899 0-11.696-17.094-29.239-27.441-29.239-1.349 0-4.048.449-6.747 2.699-8.997 7.197-26.991 27.89-39.137 43.184z"/><path d="m1393.52 383.133c27.891-2.249 99.416-75.573 138.552-117.859 1.349-1.349-.9-4.948-4.049-2.699-27.44 26.541-93.117 89.069-120.558 96.267 5.399-18.444 67.027-121.008 85.471-119.209 3.598.45 5.848 2.699 5.848.9 0-11.246-17.994-29.24-28.341-29.24-1.799 0-4.498.45-6.747 2.699-28.79 22.942-94.017 121.008-94.017 147.099 0 8.097 11.246 19.343 18.443 21.592 2.249.45 3.599.45 5.398.45zm118.759-240.666c-11.696 3.599-28.79 32.839-28.34 45.884.45 8.097 9.896 17.544 16.194 9.447 5.398-7.647 26.091-26.091 33.738-29.24 4.948-2.249 8.547-.45 9.447-.45 1.799 0-.9-6.747-4.948-11.246-5.848-6.747-15.745-15.744-26.091-14.395z"/><path d="m1589.2 339.048c-2.249 6.748-4.948 14.845-4.948 19.344 0 8.097 8.996 18.443 16.194 22.042 2.249 1.799 4.948 2.699 7.197 2.699 26.991 0 100.315-75.124 139.452-117.859 1.349-1.349-.9-4.948-3.599-2.699-27.441 26.091-91.318 87.27-119.658 95.817 0-12.596 16.644-44.535 39.136-74.674 14.845-19.793 27.44-35.988 34.188-43.185 5.848-6.298 11.696-10.346 14.845-10.346 4.048.449 5.398 2.699 5.398.899 0-11.246-17.094-28.79-27.89-28.79-1.8 0-4.049.45-6.298 2.25-25.641 19.793-58.929 58.929-82.321 81.871-21.593 20.693-67.477 61.178-89.069 70.175 0-13.045 22.492-52.181 45.434-82.321 15.295-19.793 34.188-43.185 40.936-42.285 4.048.45 5.848 2.699 5.848.9 0-11.696-17.544-29.24-28.34-29.24-1.35 0-4.049.45-6.298 2.699-11.246 8.997-30.14 30.589-45.884 52.632-25.641 35.537-50.383 80.971-50.383 100.314 0 10.797 13.946 22.942 21.143 22.942h3.599c26.99-5.398 87.269-70.175 132.703-116.509-16.644 20.693-33.738 52.632-41.385 73.324z"/><path d="m1909.94 383.133c26.541 0 100.765-75.124 139.901-117.859 1.35-1.349-.899-4.948-4.048-2.699-28.79 27.441-94.467 90.868-123.707 97.616 0-19.793 70.176-117.409 81.422-126.406 5.848-4.948-8.997-29.239-18.894-29.239-18.893 0-104.363 83.22-146.648 136.752 0-15.745 40.485-80.522 63.427-104.814 4.499-4.498-10.346-26.99-19.343-26.99-.899 0-1.799 0-2.699.45-18.893 4.048-116.059 91.768-144.849 130.004 10.346-17.544 49.932-76.473 69.276-98.515 5.848-7.198 12.145-11.696 15.294-11.246 3.599.449 5.398 2.699 5.398.899 0-11.246-17.094-28.79-28.34-28.79-1.349 0-4.048.45-5.848 2.25-4.948 4.048-11.246 10.346-17.543 17.993-24.742 29.24-51.732 70.626-71.076 107.063-11.695 20.693-13.495 32.838-12.595 35.987 3.599 12.596 15.294 26.541 28.79 23.392-6.748-3.149-4.499-12.146 8.097-26.991 3.149-4.048 8.097-9.896 15.744-18.443 32.839-36.887 74.674-79.172 120.108-106.613-30.139 27.441-64.777 92.218-64.777 109.312 0 8.997 14.395 23.392 20.693 23.392 12.595 0 59.379-77.823 141.25-134.503-23.392 21.592-72.424 96.716-72.424 122.357 0 8.547 13.045 25.641 23.391 25.641z"/><path d="m2596.85 61.946c0-34.638-27.441-51.282-66.577-51.282-151.597 0-417.454 215.024-408.457 372.469 2.699 54.881 44.535 76.023 92.668 76.923 98.515 2.249 268.106-112.011 347.278-189.384 1.799-.899-3.149-3.148-3.599-2.699-106.612 86.37-244.264 162.393-328.834 162.393-34.638 0-62.529-10.346-65.677-48.133-9.897-125.506 232.568-360.323 371.12-360.323 27.89 0 45.434 11.695 45.434 31.938 0 36.438-71.075 76.474-101.665 76.474-2.699-3.599 10.796-20.243 9.897-20.243-4.499 0-25.641 19.793-25.641 30.589 0 13.945 7.197 28.79 18.893 28.79 44.085 0 115.16-62.528 115.16-107.512z"/><path d="m2602.7 342.647c-1.8 6.748-3.599 12.146-3.599 16.644 0 8.098 8.547 17.544 14.845 21.143 3.149 1.799 5.398 2.699 7.647 2.699 26.991 0 100.315-75.124 139.451-117.859 1.35-1.349-.899-4.948-3.149-2.699-27.89 26.091-92.217 87.72-120.557 95.817 0-3.599 1.799-8.997 4.498-15.295 13.495-28.79 53.981-77.823 56.23-73.324 1.8-5.398-13.495-30.14-22.492-25.641-11.246 6.298-40.486 34.638-48.583 41.835-23.392 19.793-86.369 65.227-101.214 70.175-1.35.45-2.249.45-3.149 0-4.049-2.249 29.689-58.929 72.424-95.366 29.24-24.741 62.079-43.635 88.17-44.984 13.495-.9 22.042 5.848 22.042 19.343 0 6.748-2.699 12.146-4.948 16.194-.45.45.449.9 1.349.45 4.499-5.848 8.547-13.495 8.547-21.143 0-21.142-22.492-28.34-39.586-28.34-82.771 0-185.785 100.315-185.785 149.348 0 8.997 11.696 26.091 19.793 30.14.9.449 3.149 1.349 4.049 1.349 18.893 0 106.612-75.573 120.108-89.069-8.547 11.246-20.693 31.939-26.091 48.583z"/><path d="m2931.98 233.785c5.848-4.948-8.547-29.239-19.343-29.239-15.294 0-94.467 60.728-144.849 110.211-9.447 8.997-17.994 17.994-22.942 25.191 6.748-12.595 30.139-45.884 51.282-73.774 13.495-17.544 30.139-36.437 35.987-35.987 3.599.449 5.399 2.699 5.399.899 0-11.246-17.094-28.79-28.341-28.79-1.349 0-4.048.45-5.848 2.25-11.695 8.996-31.488 32.838-47.683 55.78-14.845 20.693-31.939 47.234-42.735 68.376-11.246 20.693-13.495 32.839-12.595 35.987 3.598 13.046 14.395 27.441 27.89 24.292-6.748-3.149-3.599-15.295 8.547-29.69 4.948-6.297 10.346-13.045 16.194-18.893 33.288-35.987 99.415-90.418 136.302-107.062-23.391 21.142-75.573 96.266-75.573 121.907 0 4.948 3.149 11.696 8.097 17.544 4.498 5.398 9.447 9.446 13.945 9.446 26.991 0 100.315-74.224 139.451-116.959 1.35-1.349-.899-4.948-3.598-2.699-28.79 26.991-93.118 88.619-121.458 96.267.9-21.143 70.625-116.06 81.871-125.057z"/><path d="m3048.49 127.623c-50.383 5.847-99.865 18.443-98.066 38.686 1.349 14.395 16.644 22.942 23.842 22.942-11.696-6.748 14.844-28.34 57.579-36.887-16.644 22.042-29.689 41.835-41.835 60.279-55.331 85.47-75.573 129.554-75.573 143.05 0 4.948.899 5.848 1.349 6.747 2.699 6.748 12.596 16.195 16.194 17.994 4.049 2.249 8.547 4.049 14.395 1.799 26.991-9.896 105.264-91.768 127.306-116.959 1.349-1.349-.45-4.948-3.149-2.699-26.541 24.292-101.215 97.616-120.558 95.367 10.796-28.79 44.535-85.92 83.671-145.299 17.994-26.541 32.838-49.033 49.482-69.726 75.124-11.246 157.445-11.696 246.514-4.048 5.398.449 3.599-.45 0-1.35-64.327-13.495-159.244-17.094-231.669-13.495 19.793-25.641 46.334-61.629 60.729-54.881 8.547 4.948-9.447-21.143-34.638-19.793-4.048 0-9.896 3.599-16.644 8.997-11.246 8.997-23.842 23.392-58.929 69.276z"/><path d="m3036.8 383.133c27.89-2.249 99.415-75.573 138.551-117.859 1.35-1.349-.9-4.948-4.048-2.699-27.441 26.541-93.118 89.069-120.558 96.267 5.398-18.444 67.026-121.008 85.47-119.209 3.599.45 5.848 2.699 5.848.9 0-11.246-17.994-29.24-28.34-29.24-1.8 0-4.499.45-6.748 2.699-28.79 22.942-94.017 121.008-94.017 147.099 0 8.097 11.246 19.343 18.444 21.592 2.249.45 3.598.45 5.398.45zm118.758-240.666c-11.696 3.599-28.79 32.839-28.34 45.884.45 8.097 9.897 17.544 16.194 9.447 5.398-7.647 26.091-26.091 33.739-29.24 4.948-2.249 8.547-.45 9.446-.45 1.8 0-.899-6.747-4.948-11.246-5.848-6.747-15.745-15.744-26.091-14.395z"/></g></svg>